<svg xmlns="http://www.w3.org/2000/svg" version="1.1"><polyline points="370.5,40.5,364.0,45.0,364.5,46.0,365.5,47.0" stroke="black" stroke-width="1" fill="none" />
<polyline points="366.5,47.5,362.5,50.0" stroke="black" stroke-width="1" fill="none" />
<polyline points="354.5,46.5,348.5,50.5,352.0,54.5,354.5,59.0,356.5,63.0,358.0,67.0,360.0,66.0,364.5,61.0,368.5,58.5,372.5,57.0,376.5,57.0,381.0,58.0,384.5,56.0,388.5,57.5,392.5,60.0,396.5,66.5,401.0,72.0" stroke="black" stroke-width="1" fill="none" />
<polyline points="391.0,64.0,390.5,60.5,388.0,61.0,383.5,60.5" stroke="black" stroke-width="1" fill="none" />
<polyline points="373.0,56.5,365.0,60.5,362.0,64.5,364.0,68.0,368.5,72.0,371.0,76.0,373.5,80.0,375.5,84.0,378.0,88.0,379.5,92.5,381.0,97.0,380.0,99.0,382.5,98.5,386.5,94.5,390.5,98.0,392.0,105.0" stroke="black" stroke-width="1" fill="none" />
<polyline points="384.5,103.5,385.0,99.5" stroke="black" stroke-width="1" fill="none" />
<polyline points="383.0,103.0,382.5,99.0,379.0,89.0,375.0,82.0,371.0,75.0,366.5,71.5,363.0,69.0" stroke="black" stroke-width="1" fill="none" />
<polyline points="357.0,63.5,353.0,57.0,349.0,51.0" stroke="black" stroke-width="1" fill="none" />
<polyline points="351.5,49.0,348.0,48.0,356.0,43.5" stroke="black" stroke-width="1" fill="none" />
<polyline points="374.5,41.0,383.0,45.0,386.5,49.0,389.5,53.5,393.0,57.5,392.0,60.0,395.5,64.0,397.0,68.5,400.5,72.5,402.5,76.5,404.0,80.5,405.0,84.5,405.5,88.5,406.0,92.5,406.5,96.5,408.0,100.5,409.0,104.5,410.0,108.5,408.5,112.5,406.0,117.0,404.5,121.0,402.0,124.5,400.5,128.0,399.5,132.0,398.5,136.5,396.5,140.5,395.0,144.5,393.5,149.0,391.5,153.0,389.0,157.0,386.5,161.5,384.0,165.0,381.5,169.5,378.5,173.0,376.0,177.0,374.5,181.0,372.0,185.0,368.5,189.0,363.0,193.0" stroke="black" stroke-width="1" fill="none" />
<polyline points="335.5,194.5,338.5,199.0,343.0,196.0,347.0,196.0,350.5,196.0,354.0,196.0,357.5,195.0,361.0,193.0,365.0,191.0,369.0,187.0,372.5,180.5,377.0,173.5,381.0,168.0,385.0,161.5,389.0,155.0,393.5,148.0,398.0,139.5" stroke="black" stroke-width="1" fill="none" />
<polyline points="401.0,130.0,405.0,120.0,408.5,112.0" stroke="black" stroke-width="1" fill="none" />
<polyline points="392.0,107.5,388.0,114.0,384.5,119.0,385.5,117.0,389.5,113.0,392.0,109.0,392.5,104.5,391.0,100.5,389.5,96.5" stroke="black" stroke-width="1" fill="none" />
<polyline points="378.5,102.5,374.5,103.5,370.5,106.0,364.5,109.5,363.5,115.5,359.0,119.5,363.5,115.5,366.0,111.5,368.0,108.0,374.0,103.5" stroke="black" stroke-width="1" fill="none" />
<polyline points="374.5,101.0,369.0,105.5,364.5,109.5,366.5,109.0,363.0,112.5,361.0,116.5,362.5,113.5,366.5,107.5,370.5,103.0,374.5,100.5,378.5,100.0,382.5,96.5" stroke="black" stroke-width="1" fill="none" />
<polyline points="362.0,111.5,361.0,108.5,364.0,104.5,365.0,104.0,364.5,102.5,360.5,105.5,357.0,109.5,359.5,106.5,360.0,103.5,359.0,103.0,355.5,106.5" stroke="black" stroke-width="1" fill="none" />
<polyline points="353.0,108.5,357.0,105.0,359.5,99.5,355.0,103.5,351.0,107.5,350.5,106.5,352.5,108.0,353.5,105.0,358.0,100.5,362.0,99.5,357.0,104.0,354.0,109.0,358.5,112.5,356.0,115.5,359.5,118.5,357.0,123.0,354.5,127.0,351.5,131.0,349.0,135.5,347.0,140.0,345.0,144.0,345.0,149.0,343.5,152.5,342.0,156.5,341.0,160.5,341.0,164.5,340.5,168.5,339.5,172.5" stroke="black" stroke-width="1" fill="none" />
<polyline points="344.5,140.5,348.0,132.5,352.0,126.5,355.5,121.5,359.0,116.5" stroke="black" stroke-width="1" fill="none" />
<polyline points="354.0,115.5,358.0,112.0,362.0,110.0" stroke="black" stroke-width="1" fill="none" />
<polyline points="353.5,101.5,356.5,94.5,354.5,98.5,350.5,99.0,351.0,99.0,353.5,99.5" stroke="black" stroke-width="1" fill="none" />
<polyline points="348.5,96.5,344.5,98.5" stroke="black" stroke-width="1" fill="none" />
<polyline points="342.0,97.5,346.5,94.0" stroke="black" stroke-width="1" fill="none" />
<polyline points="343.0,90.5,339.0,91.0" stroke="black" stroke-width="1" fill="none" />
<polyline points="338.5,92.0,341.5,94.0,341.5,98.0,342.0,92.0" stroke="black" stroke-width="1" fill="none" />
<polyline points="334.5,92.0,337.5,98.5,337.5,102.5,337.5,106.5,340.0,103.5,344.0,98.5,348.5,94.5,352.5,92.0,357.0,93.0,358.0,97.5,355.0,101.5,354.0,107.5,354.0,112.0,354.5,116.0,359.0,118.0,355.5,122.0,352.5,126.0,349.0,130.5,347.0,134.5,345.0,138.0,343.0,141.5,342.5,145.5,341.5,150.0,341.0,154.0,340.0,158.0,340.0,161.5,339.5,165.5,339.0,169.5,338.5,173.5,338.0,178.0" stroke="black" stroke-width="1" fill="none" />
<polyline points="344.0,140.0,348.0,133.0,352.0,127.5,356.5,123.0" stroke="black" stroke-width="1" fill="none" />
<polyline points="347.0,126.0,348.5,122.0,349.0,118.0,351.0,114.0,349.0,115.5" stroke="black" stroke-width="1" fill="none" />
<polyline points="345.5,113.5,343.0,118.0,342.5,118.5,346.0,114.5,350.0,112.0,352.5,111.5,355.0,112.0,359.0,111.0,362.0,108.5" stroke="black" stroke-width="1" fill="none" />
<polyline points="358.0,95.5,354.5,99.0,351.0,101.5,350.5,104.0,349.0,106.5,352.0,102.5,352.5,99.5,356.5,95.5,355.0,91.5" stroke="black" stroke-width="1" fill="none" />
<polyline points="351.5,91.0,347.0,95.5,343.0,99.5,340.0,103.0,339.0,108.5,339.5,112.5,342.0,113.0,338.5,114.0,342.0,111.0" stroke="black" stroke-width="1" fill="none" />
<polyline points="343.5,116.0,341.5,121.5,337.5,131.5" stroke="black" stroke-width="1" fill="none" />
<polyline points="333.5,149.5,333.5,145.5,333.5,141.5,334.5,137.5,335.5,134.0,334.5,130.5,335.5,126.5,336.0,122.0,336.5,117.5,336.0,113.5,336.0,109.0,336.0,104.5,336.0,100.0,333.5,93.5,329.5,92.0" stroke="black" stroke-width="1" fill="none" />
<polyline points="331.0,92.5,331.0,96.5" stroke="black" stroke-width="1" fill="none" />
<polyline points="327.0,92.0,320.5,95.5,317.5,99.5,312.0,104.0" stroke="black" stroke-width="1" fill="none" />
<polyline points="310.5,96.5,314.0,88.5,318.0,84.5,322.5,83.5,326.5,83.5,330.5,84.0,334.5,87.0" stroke="black" stroke-width="1" fill="none" />
<polyline points="318.5,88.0,322.0,88.0,326.0,89.5,330.0,89.0,334.0,88.5,338.0,89.5,342.0,89.0,346.0,89.0,347.0,91.0,346.0,95.0,346.0,100.0,348.5,104.0,346.5,108.0,351.5,110.5,350.0,113.5,347.0,115.5,344.0,117.5,343.5,122.5,342.0,126.5,340.0,130.0,339.0,134.0,338.0,138.0,336.0,142.5" stroke="black" stroke-width="1" fill="none" />
<polyline points="327.5,136.5,329.5,136.0,331.0,132.5,332.0,128.5,333.0,124.5,334.0,121.0,334.0,117.5,335.0,113.5,334.5,109.5,335.0,105.5" stroke="black" stroke-width="1" fill="none" />
<polyline points="317.5,95.0,321.5,94.0,325.0,90.5,329.0,89.5,333.0,89.5,336.5,92.0,335.0,93.0,331.5,94.0,332.5,98.0,332.5,104.0,331.5,107.5,331.5,112.0,330.5,116.5,330.5,120.5,330.0,124.0,329.0,128.5,328.0,132.5,327.5,136.5,326.0,141.0,329.5,140.5,328.0,145.0,327.5,148.5,327.0,152.5,326.0,156.5,326.5,160.0,326.0,164.0,326.0,168.0,325.5,172.5,325.5,176.5,325.0,180.5" stroke="black" stroke-width="1" fill="none" />
<polyline points="316.0,185.0,314.5,181.0,313.5,177.0,313.0,173.0,312.5,169.5,312.0,166.0,312.0,162.0,312.0,158.0,312.0,154.0,312.0,149.5,311.5,145.5,311.0,141.5,310.0,137.0,310.0,133.0,308.5,129.0,308.5,125.5,308.0,121.5,307.0,117.5,307.0,113.5,306.0,109.5,305.0,105.5,304.0,101.0,303.0,97.0,302.0,93.0,303.0,89.0,306.5,87.5,308.5,83.0,309.5,79.0,311.5,75.0,313.5,71.5,315.5,67.5,317.0,64.0,319.5,60.0,322.0,56.5,324.0,52.5,327.0,54.5,323.0,61.0,319.0,69.5" stroke="black" stroke-width="1" fill="none" />
<polyline points="318.5,77.0,318.0,81.0" stroke="black" stroke-width="1" fill="none" />
<polyline points="300.5,82.0,296.5,77.0" stroke="black" stroke-width="1" fill="none" />
<polyline points="297.0,72.5,298.0,77.0,300.0,81.0,301.0,85.0,300.5,89.0,299.5,92.5,301.5,88.5,305.5,89.5,309.5,81.0,313.5,71.5,317.5,61.0,321.5,53.5,325.5,50.5,329.5,49.5,333.5,49.5,338.0,49.5,341.5,49.5,345.5,49.5,349.5,47.5,354.0,44.5,358.0,43.0,362.0,44.0,366.0,43.5,370.0,42.0,374.5,42.0,379.0,44.0,383.0,46.0,387.0,50.0,391.0,55.0,395.5,61.0" stroke="black" stroke-width="1" fill="none" />
<polyline points="328.0,51.0,324.5,54.5,322.0,59.0,320.0,63.0,318.5,66.5,317.5,71.0,317.0,74.5,315.5,78.5,316.0,85.5,312.0,89.5,310.0,93.5,309.5,97.5,310.5,101.5,311.0,106.0,312.0,110.0,312.5,114.5,313.5,118.5,314.5,122.5,315.0,126.5,314.5,130.5,315.0,134.5,316.0,138.5,316.0,142.5,316.0,147.0,315.5,151.0,315.0,155.0,314.5,159.0,315.0,163.0,314.5,166.5,314.5,170.5,314.5,174.5,315.5,178.5,316.0,182.5,317.0,186.5" stroke="black" stroke-width="1" fill="none" />
<polyline points="296.5,166.5,300.5,176.5,304.5,181.5,308.5,185.5,312.5,187.5,316.5,189.5,320.5,191.5,324.5,193.0,328.0,194.5,332.0,196.0,336.0,197.0,339.0,199.0,338.0,202.5,337.5,206.5,336.5,211.0,336.0,215.0,335.5,219.0,335.0,223.0,334.5,227.0,334.0,231.0,333.5,235.0,333.0,239.0,332.5,243.0,333.0,247.0,333.0,251.5,332.5,255.0,332.5,259.0,332.0,262.5,331.5,266.5,331.5,270.5,331.0,274.5,331.0,278.5,330.5,282.0,330.0,286.0,330.5,290.5,329.5,294.5,329.5,298.5,329.5,302.5,329.5,307.0,329.5,311.0,329.5,315.0,329.0,319.0,329.5,323.0,329.5,327.0,329.5,331.0,329.5,334.5,329.0,338.5,329.5,342.5,329.5,346.5,329.5,350.0,330.0,354.0,329.5,358.0,329.5,361.5,329.5,365.5,329.0,370.0,329.0,374.0,328.5,378.0,329.0,382.0,329.5,386.0,330.0,390.0,331.0,394.5,331.0,398.5,331.0,402.0,331.0,406.5,331.5,410.5,331.5,414.5,332.0,419.0,332.0,423.0,333.0,427.0,334.0,431.5,334.5,435.5,335.0,439.5,335.0,443.0,336.0,446.5,335.5,450.5,336.0,454.0,337.0,458.0,338.0,462.5,338.5,467.0,339.0,471.0,340.0,475.0,341.0,479.0,341.5,483.0,342.5,486.5,342.5,490.5,343.5,495.0,344.0,498.5,344.0,502.5,344.5,506.5,345.5,511.0" stroke="black" stroke-width="1" fill="none" />
<polyline points="397.0,368.5,401.0,370.5,405.0,371.5,409.0,372.5,413.0,374.0,419.0,373.5,423.0,371.5,427.0,370.5,431.0,370.0,435.0,369.0,439.0,367.5,443.0,366.0,447.0,363.0,451.5,359.0,456.0,354.0,460.0,346.0" stroke="black" stroke-width="1" fill="none" />
<polyline points="446.5,315.5,450.5,307.0,454.5,299.5" stroke="black" stroke-width="1" fill="none" />
<polyline points="443.0,308.0,441.5,312.0,439.5,316.0,436.0,318.5,440.5,315.0" stroke="black" stroke-width="1" fill="none" />
<polyline points="437.5,333.5,439.0,330.0,440.5,326.0,442.0,322.0,442.5,318.0,443.5,313.5,445.5,309.5,448.0,305.5,449.5,302.0,451.5,298.5,454.5,294.5,455.0,290.0,453.0,286.0,453.0,282.0,452.5,278.0,452.0,274.0,451.5,270.5,451.0,266.5,449.5,262.5,448.5,258.5,446.5,254.5,444.5,250.5,441.5,246.0,439.0,242.5,435.0,238.5,432.0,238.0,427.5,236.0,423.5,239.5" stroke="black" stroke-width="1" fill="none" />
<polyline points="425.5,241.0,431.0,238.5,432.0,242.5,431.0,246.5,430.0,248.0,428.5,252.0,426.5,252.0,430.5,248.0,434.5,244.5" stroke="black" stroke-width="1" fill="none" />
<polyline points="431.5,249.5,435.5,251.5,440.5,252.0,443.0,255.5" stroke="black" stroke-width="1" fill="none" />
<polyline points="442.0,260.0,442.5,259.0,440.5,260.5,443.0,264.5,444.5,268.5,446.0,272.5,445.5,276.5" stroke="black" stroke-width="1" fill="none" />
<polyline points="449.5,267.5,450.0,271.5,448.5,275.5,447.5,280.0,450.0,284.0,451.0,289.0,450.5,293.0,453.5,298.0,452.0,302.0,450.0,306.0,448.0,310.0,446.0,314.0,447.0,307.0,451.0,299.5" stroke="black" stroke-width="1" fill="none" />
<polyline points="437.5,292.0,433.5,291.5,429.0,291.5,425.0,291.5,421.0,293.0,417.0,295.5,413.0,295.5,409.0,291.5,405.0,290.0,401.5,289.0,397.5,289.0,394.0,291.0,390.0,299.0" stroke="black" stroke-width="1" fill="none" />
<polyline points="392.0,301.0,390.5,304.5,393.5,297.5,397.5,295.5,401.5,292.0,406.0,294.0,410.0,295.5,414.0,296.0,417.5,297.0" stroke="black" stroke-width="1" fill="none" />
<polyline points="423.0,299.0,421.0,298.5,420.5,300.0,414.0,303.0,414.5,299.0,417.0,296.0,424.0,292.5" stroke="black" stroke-width="1" fill="none" />
<polyline points="428.0,293.0,426.5,297.0,424.0,298.0,423.0,299.5,428.5,296.0,435.5,294.5,439.5,294.0" stroke="black" stroke-width="1" fill="none" />
<polyline points="421.5,305.5,417.5,308.0" stroke="black" stroke-width="1" fill="none" />
<polyline points="407.5,294.0,403.5,291.0,399.5,288.5" stroke="black" stroke-width="1" fill="none" />
<polyline points="401.5,291.5,407.0,295.5" stroke="black" stroke-width="1" fill="none" />
<polyline points="405.5,294.0,399.0,291.5,395.0,294.5" stroke="black" stroke-width="1" fill="none" />
<polyline points="397.5,297.0,399.5,293.0" stroke="black" stroke-width="1" fill="none" />
<polyline points="395.0,289.5,391.5,293.5,390.0,297.5,389.5,302.0,390.0,306.0,391.5,310.5,392.0,314.5,392.5,318.5,392.5,322.0,393.5,326.5,394.5,330.5,395.0,334.5,395.5,338.0,396.5,342.0,396.5,346.0,397.0,349.5,397.0,353.0" stroke="black" stroke-width="1" fill="none" />
<polyline points="405.0,371.0,397.0,365.5,398.5,364.5,396.0,363.5,397.0,359.5,396.0,356.0,395.5,352.0,396.0,347.5,394.5,344.0,393.5,340.5,392.5,336.5,391.5,333.0,391.5,329.0,389.5,325.5,386.0,323.5,382.0,325.0" stroke="black" stroke-width="1" fill="none" />
<polyline points="368.0,342.5,372.0,351.0,376.5,357.5,381.0,362.0,385.0,364.5,389.0,366.0,393.0,367.5,397.5,368.5" stroke="black" stroke-width="1" fill="none" />
<polyline points="412.5,374.5,412.5,379.0,412.0,382.5,412.0,386.5,411.5,390.5,411.5,395.0,411.5,399.0,411.5,403.0,411.0,407.5,411.0,411.5,411.0,415.5,410.5,419.5,411.0,423.5,411.5,427.0,411.5,431.0,412.0,435.0,412.5,439.0,412.5,443.0,413.0,447.5,413.0,451.5,412.5,455.0,412.5,459.5,412.5,463.5,412.5,468.0,412.0,472.0,411.0,476.0,411.5,480.0,411.5,484.0,411.5,488.0,412.0,492.0,412.5,496.0,412.5,500.0,412.0,504.5,412.0,508.0,411.5,511.5" stroke="black" stroke-width="1" fill="none" />
<polyline points="285.5,511.0,284.5,507.0,283.0,503.5,282.5,499.5,282.0,495.5,281.0,491.0,280.0,486.5,280.0,483.0,278.5,479.0,277.5,475.5,277.0,471.5,277.0,467.5,276.0,463.5,275.0,459.5,274.5,456.0,273.5,452.0,273.0,447.5,272.0,443.0,271.0,439.0,270.0,435.0,269.0,431.0,268.0,427.5,267.0,423.5,266.5,419.0,265.5,415.0,265.0,410.5,264.0,406.5,263.5,402.5,262.5,398.5,261.0,395.0,259.5,391.0,258.5,386.5,258.0,382.0,257.0,378.0,255.5,374.5,254.5,370.5,254.0,366.5,253.0,362.5,248.0,366.5,243.5,374.5,240.0,379.0,236.5,381.0,232.5,383.0,228.5,385.0,224.5,386.5,221.0,387.0,217.0,387.5,213.0,388.5" stroke="black" stroke-width="1" fill="none" />
<polyline points="214.5,386.5,212.0,390.5,211.5,394.5,211.0,398.5,211.0,402.5,211.0,406.5,211.0,410.5,210.5,414.5,210.5,418.5,210.5,422.5,210.5,426.5,210.5,430.5,211.0,434.5,211.0,438.0,210.5,442.5,211.0,446.5,211.0,450.0,210.5,454.5,210.5,458.5,210.5,462.5,210.5,466.5,210.0,470.5,210.0,474.5,210.5,478.5,210.5,483.0,210.5,486.5,210.5,491.0,210.5,495.0,210.5,499.0,211.0,503.0,211.5,507.0,211.5,511.0" stroke="black" stroke-width="1" fill="none" />
<polyline points="209.5,510.5,209.0,506.5,209.5,502.5,209.0,499.0,208.5,495.0,208.5,491.5,208.0,487.5,208.0,483.5,208.0,479.0,208.5,475.0,209.5,471.0,209.0,467.0,208.5,463.0,209.0,459.0,208.5,454.5,208.0,450.5,208.5,446.0,208.0,442.5,208.0,438.5,208.0,435.0,208.5,431.5,209.0,427.5,209.5,423.5,209.5,419.5,210.0,415.0,210.0,411.0,210.0,407.0,210.5,402.5,210.5,398.5,211.0,394.5,211.0,391.0,210.0,388.0,206.0,387.5,201.5,385.0,197.5,384.0,194.0,382.0,190.0,381.0,185.5,379.5,181.0,378.0,177.0,376.0,173.0,371.5,169.0,363.5" stroke="black" stroke-width="1" fill="none" />
<polyline points="185.5,371.5,189.5,380.0" stroke="black" stroke-width="1" fill="none" />
<polyline points="199.5,372.5,199.5,368.5,199.5,364.0,199.0,360.0,198.5,356.0,198.5,351.5,198.5,347.5,199.0,344.0,199.0,340.0,199.0,336.5,198.5,332.5,198.5,328.5,198.0,324.0,197.0,320.0,196.5,316.5,193.0,311.0,190.5,306.0,189.5,301.5,186.5,295.0,182.5,294.0,179.0,294.5,174.5,299.5" stroke="black" stroke-width="1" fill="none" />
<polyline points="179.0,295.5,174.5,299.0,173.5,303.0,173.5,306.5,174.0,310.0,176.0,314.0,177.5,317.5,178.5,321.5,181.0,325.5,182.0,329.5,182.5,334.0,184.0,337.5,184.5,341.5,185.0,346.0,185.5,350.0,186.5,354.5,187.0,358.5,188.0,363.0,188.5,367.5,189.5,371.5,190.0,376.0,191.0,380.0" stroke="black" stroke-width="1" fill="none" />
<polyline points="185.0,380.0,177.5,376.5,173.5,372.5,171.0,368.5,169.0,364.5,168.0,360.0,167.0,356.0,167.0,352.0,167.5,347.5,167.0,343.5,167.0,339.5,167.0,336.0,167.5,332.0,167.5,328.5,167.5,325.0,167.0,320.5,166.5,316.5,166.0,313.0,165.5,309.0,165.0,305.0,164.5,301.0,164.5,297.0,164.5,293.0,165.5,288.5,165.5,286.5" stroke="black" stroke-width="1" fill="none" />
<polyline points="165.5,286.0,166.5,290.0,167.0,294.0,167.0,298.0,168.0,302.5,168.5,307.0,169.5,311.0,171.0,315.5,172.0,319.5,173.5,323.0,175.5,327.0,176.0,331.0,180.5,338.0" stroke="black" stroke-width="1" fill="none" />
<polyline points="211.0,338.5,212.0,335.0,213.0,331.0,215.0,327.0,216.5,323.0,218.0,319.0,219.5,315.0,220.5,311.0,223.0,305.5,230.0,301.0,227.5,301.5,224.0,302.5,220.5,307.0" stroke="black" stroke-width="1" fill="none" />
<polyline points="220.5,307.5,224.5,303.5,228.5,302.0" stroke="black" stroke-width="1" fill="none" />
<polyline points="224.0,302.5,220.0,306.0,219.0,310.0,218.5,314.0" stroke="black" stroke-width="1" fill="none" />
<polyline points="215.5,314.5,214.5,311.5,212.5,314.0,209.0,309.0,206.5,313.0,207.0,311.5,209.0,307.5,209.0,307.0,209.5,303.5,211.5,303.5,211.5,301.0,209.5,305.0" stroke="black" stroke-width="1" fill="none" />
<polyline points="212.5,312.0,215.0,316.0,214.5,320.5,213.5,324.0,211.5,328.0,211.5,331.5,210.5,335.5,210.0,339.5,211.0,343.0,211.0,347.5,211.0,351.5,211.0,355.5,211.0,359.5,211.0,363.5,210.0,368.0,210.0,371.5" stroke="black" stroke-width="1" fill="none" />
<polyline points="202.5,384.5,203.5,389.0,203.5,393.0,203.0,397.0,202.5,401.5,202.0,405.5,202.0,409.5,202.0,413.5,202.0,417.5,202.0,421.5,202.5,425.5,202.0,429.5,202.0,433.5,202.0,438.0,202.5,442.0,202.5,446.5,203.0,450.0,203.0,454.0,203.0,458.0,203.0,461.5,203.0,465.0,203.0,469.5,203.0,473.5,203.0,477.5,203.0,481.5,203.0,485.5,203.0,490.0,203.0,494.0,202.5,498.0,202.5,502.0,202.5,506.0,202.5,510.0,202.5,513.5" stroke="black" stroke-width="1" fill="none" />
<polyline points="132.0,472.0,128.0,460.5" stroke="black" stroke-width="1" fill="none" />
<polyline points="137.5,462.0,133.5,450.0,130.0,439.0,126.0,428.0" stroke="black" stroke-width="1" fill="none" />
<polyline points="107.5,337.0,111.5,334.5,115.5,333.0,119.5,330.5,123.5,330.0,127.5,329.0,131.5,327.5,136.0,324.5,140.0,322.0,144.0,318.0,148.0,312.0" stroke="black" stroke-width="1" fill="none" />
<polyline points="178.5,304.5,182.5,300.5,179.5,304.0,178.5,308.5,177.0,312.5,180.5,324.0" stroke="black" stroke-width="1" fill="none" />
<polyline points="198.5,330.0,198.0,326.0,197.5,322.0,197.0,318.0,196.5,314.0,195.5,310.5,194.0,306.5,192.0,303.5,191.5,300.0,195.0,296.5,195.0,298.5" stroke="black" stroke-width="1" fill="none" />
<polyline points="193.0,301.0,197.0,301.0,197.5,302.5,201.5,303.0" stroke="black" stroke-width="1" fill="none" />
<polyline points="198.5,304.5,193.0,303.5" stroke="black" stroke-width="1" fill="none" />
<polyline points="200.5,298.5,195.0,300.0,192.5,302.5,194.5,305.0,191.5,308.5,194.0,308.5,195.5,312.0,195.5,316.0,196.5,320.0,196.0,323.5,197.0,327.5,196.5,332.0" stroke="black" stroke-width="1" fill="none" />
<polyline points="212.5,328.0,216.5,323.0" stroke="black" stroke-width="1" fill="none" />
<polyline points="208.5,325.0,208.5,320.5,208.0,316.5,209.0,312.5,210.0,307.0,212.0,303.0,212.0,298.5,208.5,298.0,204.5,296.5,201.0,296.0,197.0,296.0,193.5,296.5,189.5,297.0,186.0,297.5,182.0,298.0" stroke="black" stroke-width="1" fill="none" />
<polyline points="184.0,301.0,188.0,299.5,194.0,298.5,197.5,299.0,201.0,297.5,202.0,300.5" stroke="black" stroke-width="1" fill="none" />
<polyline points="210.0,313.5,214.0,317.5" stroke="black" stroke-width="1" fill="none" />
<polyline points="197.0,277.5,192.5,274.5,188.0,272.0,184.5,270.5" stroke="black" stroke-width="1" fill="none" />
<polyline points="178.0,272.0,172.0,275.5,172.0,280.0,172.0,284.0,172.5,288.0,172.0,291.5,172.0,295.5,172.0,299.5,170.5,303.5,171.0,307.5,172.5,311.5,173.0,315.5,174.0,319.5,175.0,323.5,175.5,327.0,177.0,331.0,178.5,335.0,180.5,339.5,181.5,344.0,183.0,348.0,184.0,352.5,184.5,356.0,184.5,360.5,184.5,364.0,185.0,367.5,186.0,371.5,186.5,375.0,188.0,379.0" stroke="black" stroke-width="1" fill="none" />
<polyline points="232.5,384.0,240.0,380.0,244.5,376.0,247.5,372.0,249.0,368.0,251.5,364.0,253.5,360.5,255.5,356.5,257.0,352.5,258.0,348.5,259.0,345.0,260.0,341.0,260.0,337.0,260.5,333.0,260.5,329.0,260.5,325.5,261.5,321.5,262.0,318.0,263.5,313.5,263.0,309.5,263.0,305.0,263.5,300.5,261.0,299.5,257.0,296.0,252.5,285.5,248.5,279.0,244.0,275.0,239.5,272.0,235.5,269.5,230.0,264.5,229.0,260.5,228.5,256.5,227.5,252.5,226.5,248.5,227.0,244.5,225.5,240.5,225.5,237.0,221.5,237.5,217.5,238.5,213.5,239.0,209.0,239.5,205.0,239.0,201.0,237.5,197.5,234.5,193.5,230.0,190.0,223.5,186.0,216.0,182.0,207.5,178.0,199.5" stroke="black" stroke-width="1" fill="none" />
<polyline points="182.0,194.5,186.0,194.0,190.0,192.0,194.0,191.5,197.5,194.0,201.5,196.5,205.0,196.5,208.5,198.5,212.0,201.0,216.0,203.5,219.5,206.5,218.5,208.0,218.0,210.0" stroke="black" stroke-width="1" fill="none" />
<polyline points="207.5,205.5,207.5,204.5" stroke="black" stroke-width="1" fill="none" />
<polyline points="205.5,204.5,206.0,202.5,210.0,202.5,212.5,206.0,208.5,210.0,210.0,214.0" stroke="black" stroke-width="1" fill="none" />
<polyline points="210.0,208.5,206.0,208.5" stroke="black" stroke-width="1" fill="none" />
<polyline points="206.0,214.0,205.5,210.0,202.5,203.0,207.0,202.5,209.5,202.0,205.0,201.0,201.0,198.5,201.0,200.0,197.0,199.5,196.0,200.0,196.0,196.0,191.5,194.0" stroke="black" stroke-width="1" fill="none" />
<polyline points="191.5,187.0,195.5,183.5,192.0,178.0" stroke="black" stroke-width="1" fill="none" />
<polyline points="191.5,184.0,191.5,180.5,191.0,176.5,193.0,173.0,192.0,169.5,190.5,166.0,190.0,161.5,190.0,157.5,189.5,153.5,189.0,150.0,188.0,148.5" stroke="black" stroke-width="1" fill="none" />
<polyline points="188.0,146.0,192.0,144.5,189.0,149.0,187.5,152.5,184.0,157.0,182.0,161.0,184.5,159.5,182.0,164.0,180.0,168.0,179.0,167.5,183.0,160.0" stroke="black" stroke-width="1" fill="none" />
<polyline points="183.0,165.5,182.0,165.0,180.5,169.0,179.5,164.5,183.0,155.5,186.5,146.0,190.5,140.5,194.5,136.0,198.0,132.5,202.0,131.0" stroke="black" stroke-width="1" fill="none" />
<polyline points="201.0,131.5,196.0,136.0" stroke="black" stroke-width="1" fill="none" />
<polyline points="197.0,130.5,200.5,126.5,204.5,123.5,208.0,122.0,200.5,125.5,196.0,129.5,195.0,133.5,193.0,137.5,189.0,142.0,185.5,145.5,184.0,149.5,182.5,153.5,180.5,157.5,178.5,161.5,177.5,165.5,176.0,169.5,175.5,174.0" stroke="black" stroke-width="1" fill="none" />
<polyline points="185.5,167.5,188.5,167.0,187.0,169.0,188.0,172.5" stroke="black" stroke-width="1" fill="none" />
<polyline points="189.5,174.0,186.0,167.5" stroke="black" stroke-width="1" fill="none" />
<polyline points="188.5,174.5,186.0,174.5,185.5,170.5,185.0,166.5,185.5,162.5,186.0,158.5,187.5,159.5,186.5,155.5" stroke="black" stroke-width="1" fill="none" />
<polyline points="187.5,153.0,188.5,156.5,189.5,160.5,189.5,164.5,190.0,168.5,190.5,172.5,189.0,176.5,189.0,180.5,188.5,185.0,187.5,188.5,189.5,191.0,191.0,194.0,194.5,198.0,198.0,200.5,198.0,204.5,198.5,209.0" stroke="black" stroke-width="1" fill="none" />
<polyline points="204.5,198.5,203.5,202.5,202.5,201.5,206.5,199.0,210.5,204.5,212.0,206.5,216.0,208.0,217.0,210.0,219.0,211.0,222.5,210.5" stroke="black" stroke-width="1" fill="none" />
<polyline points="229.0,203.0,225.0,201.0,221.0,199.0,217.0,197.5" stroke="black" stroke-width="1" fill="none" />
<polyline points="219.0,193.0,223.0,190.0,222.5,190.5,218.5,192.5,222.5,189.0,226.5,186.5,230.0,184.0" stroke="black" stroke-width="1" fill="none" />
<polyline points="229.0,181.5,226.0,185.5,221.5,185.5,222.0,188.5,217.0,192.5,215.5,196.5,220.5,198.5,226.0,203.0" stroke="black" stroke-width="1" fill="none" />
<polyline points="219.5,188.0,223.0,185.5,227.0,183.5,231.0,183.5,235.0,182.5,238.5,180.0,242.5,178.5,246.5,179.0,252.0,173.5,256.5,167.0,260.5,162.0,264.5,165.0,268.5,172.0" stroke="black" stroke-width="1" fill="none" />
<polyline points="270.0,161.0,275.5,159.5" stroke="black" stroke-width="1" fill="none" />
<polyline points="275.0,159.5,273.5,163.5,274.0,167.5,274.0,172.0,275.0,174.5,274.0,179.0,274.5,183.0" stroke="black" stroke-width="1" fill="none" />
<polyline points="272.0,195.5,268.0,205.5,263.5,211.0,259.5,215.0,255.5,220.0,252.0,223.0,248.0,226.0,244.0,228.0,240.0,229.5,236.0,231.5,231.5,233.0,228.0,235.5" stroke="black" stroke-width="1" fill="none" />
<polyline points="220.5,239.0,221.5,243.0,222.0,247.0,222.0,250.5,222.5,254.5,223.0,259.0,223.5,263.0" stroke="black" stroke-width="1" fill="none" />
<polyline points="217.5,266.0,213.0,267.0,209.5,267.0,205.5,269.0,201.5,273.5,196.5,276.5,191.5,272.5,185.0,269.0,189.0,265.5,197.5,261.5,203.5,261.0,199.5,264.0" stroke="black" stroke-width="1" fill="none" />
<polyline points="202.0,264.0,198.5,263.0,202.5,259.0" stroke="black" stroke-width="1" fill="none" />
<polyline points="213.0,259.5,220.5,264.0" stroke="black" stroke-width="1" fill="none" />
<polyline points="229.0,265.5,225.0,264.5,221.0,263.0,217.0,260.5,213.0,259.5,209.0,259.0,205.0,258.5,200.5,259.5,196.5,262.0,192.0,263.5,188.5,265.5,184.0,269.5,180.0,271.0,176.0,271.5,172.0,273.0" stroke="black" stroke-width="1" fill="none" />
<polyline points="173.0,274.5,173.5,278.5" stroke="black" stroke-width="1" fill="none" />
<polyline points="173.5,285.5,174.5,289.5" stroke="black" stroke-width="1" fill="none" />
<polyline points="154.5,255.5,154.5,258.5,150.5,266.5,151.5,262.5,153.5,259.0,156.5,255.0,155.0,254.0,159.0,250.0,156.5,252.0,152.5,256.0" stroke="black" stroke-width="1" fill="none" />
<polyline points="156.0,256.5,156.0,252.5,154.0,257.0,149.0,265.5,151.5,263.0,155.5,257.5,152.0,254.5,151.5,251.0,151.5,247.0,150.5,243.0,149.0,239.0,148.5,235.0,147.0,230.5,146.0,226.5,145.0,223.0,143.5,218.0,142.0,217.5,140.0,213.5,140.0,209.5,138.5,206.0,136.0,205.5" stroke="black" stroke-width="1" fill="none" />
<polyline points="136.5,204.5,137.5,208.5,138.5,212.5,137.0,216.5,136.0,220.5,135.0,225.0,133.5,229.5,133.0,233.5" stroke="black" stroke-width="1" fill="none" />
<polyline points="124.5,227.0,128.5,221.0,128.0,221.5,125.5,225.0,123.5,229.0,122.0,232.5,120.0,235.5,123.5,227.0" stroke="black" stroke-width="1" fill="none" />
<polyline points="129.0,220.0,130.5,224.0,130.5,228.0,131.0,232.0" stroke="black" stroke-width="1" fill="none" />
<polyline points="131.5,215.5,133.0,212.0,135.0,208.0,135.0,204.0,134.5,200.5,129.5,199.5" stroke="black" stroke-width="1" fill="none" />
<polyline points="121.0,199.0,122.0,203.5,122.5,207.5,123.5,211.5,123.0,215.5,122.5,220.0,121.0,224.5,120.0,229.0,118.0,233.0,116.5,237.5" stroke="black" stroke-width="1" fill="none" />
<polyline points="114.5,267.0,113.5,270.5,110.0,274.0,108.5,278.0,107.5,282.5,105.5,284.5,106.0,288.5,106.5,293.0,106.5,297.0,106.5,301.0,105.5,305.5,106.0,309.0" stroke="black" stroke-width="1" fill="none" />
<polyline points="83.0,314.5,78.5,305.0" stroke="black" stroke-width="1" fill="none" />
<polyline points="78.5,284.5,82.0,279.5,85.5,275.5,89.0,273.5,93.0,271.0,97.0,270.0,101.0,270.0,106.0,270.0" stroke="black" stroke-width="1" fill="none" />
<polyline points="102.5,267.0,98.5,267.0,94.5,268.0,90.5,270.0" stroke="black" stroke-width="1" fill="none" />
<polyline points="93.0,271.0,86.5,275.0,83.5,278.5,80.0,283.0,80.0,279.0,84.0,274.5,88.0,269.5,92.0,267.5,95.5,264.5,99.5,263.5,103.5,265.0,107.5,267.5,111.5,267.0,115.5,264.5,120.0,264.0,124.0,264.5,129.0,265.0,133.0,266.5,137.0,270.5" stroke="black" stroke-width="1" fill="none" />
<polyline points="135.5,270.0,131.5,266.0" stroke="black" stroke-width="1" fill="none" />
<polyline points="126.0,266.5,125.5,270.5,127.5,272.5,131.5,272.5,136.0,272.0" stroke="black" stroke-width="1" fill="none" />
<polyline points="116.5,268.0,112.5,269.0,109.0,272.5,108.0,270.0,108.0,267.0,101.5,263.0" stroke="black" stroke-width="1" fill="none" />
<polyline points="95.5,263.0,88.5,267.5,84.0,271.5,80.0,275.5,78.0,279.5,76.5,284.0,76.0,288.0,76.0,292.0,77.0,296.0,77.5,300.0,78.5,304.0,80.0,308.0,81.5,312.0,83.0,316.0,84.5,320.0,85.5,324.0,87.0,328.0,88.0,332.0,90.0,330.0" stroke="black" stroke-width="1" fill="none" />
<polyline points="121.0,329.0,112.5,333.0,107.5,337.0,108.0,341.5,109.0,345.5,109.5,350.5,110.5,354.5,111.0,358.5,111.5,362.5,112.5,366.5,113.0,370.5,114.0,374.5,114.0,378.0,114.0,381.5,114.5,385.5,115.0,389.0,115.5,393.0,116.0,397.5,117.0,401.5,118.0,405.5,119.0,409.5,120.5,413.5,121.5,417.5,122.5,421.5,123.0,425.5,125.0,430.0,126.5,434.0,128.5,438.5,129.5,443.0,131.5,447.0,132.5,451.0,134.0,454.5,135.5,458.5,136.5,462.0,137.5,466.0,139.0,469.5,140.5,473.5,141.5,477.0,143.0,480.5,144.0,485.0,145.0,489.0,146.0,493.0,147.0,497.0,147.5,501.0,149.0,505.5,150.0,509.5,151.0,513.5" stroke="black" stroke-width="1" fill="none" />
<polyline points="142.0,512.0,141.0,508.0,140.5,504.0,139.0,500.0,138.0,495.5,137.0,491.5,137.0,487.5,135.5,484.0,134.0,480.5,133.0,476.5,132.0,472.5,130.5,468.5,129.5,464.5,128.0,460.5,127.0,456.5,126.0,453.0,124.5,449.0,123.5,445.0,122.0,441.0,120.5,437.0,119.0,433.0,117.5,428.5,116.5,425.0,115.0,421.0,113.5,417.0,113.5,413.0,112.5,409.0,111.5,405.5,110.5,401.5,109.5,397.0,108.5,392.5,107.5,388.5,106.5,384.0,105.5,379.5,105.0,375.0,104.0,370.5,103.5,366.5,102.5,362.5,102.0,359.0,101.5,355.5,101.0,351.5,101.0,347.5,100.5,343.5,100.0,339.5,101.0,336.0,97.0,335.5,93.0,335.0,89.0,334.0,85.5,333.5,81.5,333.0,77.5,333.0,73.5,332.5,69.5,331.0,65.5,328.5,61.5,325.0,57.0,320.5,53.0,312.5" stroke="black" stroke-width="1" fill="none" />
<polyline points="64.5,287.5,65.5,286.5,62.0,281.5,59.5,277.5,57.0,273.5,55.5,270.0,54.5,266.0,55.0,263.0,52.0,260.5,52.0,256.0,53.0,252.0,53.5,248.5,54.0,244.0,54.5,240.0,55.0,235.5,56.5,231.5,57.0,227.5,57.5,223.5,58.5,219.5,59.5,215.5,59.5,212.5,55.5,218.0" stroke="black" stroke-width="1" fill="none" />
<polyline points="60.5,212.5,64.5,210.0,68.5,209.0,70.0,210.5,74.5,209.5,78.5,206.5,82.5,201.0,86.5,198.0,90.5,195.5,94.5,193.5,98.5,192.0,102.5,193.0,106.5,195.0,110.5,197.0,115.0,197.0,118.5,196.0,122.5,195.5,126.0,195.0,129.5,195.0,133.5,198.0,137.5,203.5" stroke="black" stroke-width="1" fill="none" />
<polyline points="141.5,209.5,143.0,213.5,144.0,217.0" stroke="black" stroke-width="1" fill="none" />
<polyline points="158.0,251.5,159.0,255.0,158.0,259.0,157.0,263.0,155.0,267.0,154.5,271.0,153.5,275.0,153.0,279.5,152.0,284.0,151.5,287.5,150.5,291.5,150.0,295.5,150.0,300.0,149.5,303.5,149.0,307.5,148.0,311.0,146.0,315.0,143.0,319.0,139.0,322.5,133.5,327.0" stroke="black" stroke-width="1" fill="none" />
<polyline points="64.0,277.0,60.0,269.5,56.0,264.5,52.0,259.5,48.0,259.5" stroke="black" stroke-width="1" fill="none" />
<polyline points="44.0,261.5,48.5,261.0,50.0,262.5,53.5,265.0,57.5,274.0,61.0,279.5" stroke="black" stroke-width="1" fill="none" />
<polyline points="64.5,286.0,65.0,281.5,64.0,278.0,62.0,274.5,60.0,270.5,58.0,267.0,54.5,263.0" stroke="black" stroke-width="1" fill="none" />
<polyline points="43.5,257.5,47.5,252.5" stroke="black" stroke-width="1" fill="none" />
<polyline points="65.5,209.5,60.0,211.5,56.0,215.5,55.0,219.5,54.5,223.0,53.5,227.5,52.5,232.0,51.5,236.0,50.0,240.0,49.0,244.0,49.0,248.5,47.5,252.0,45.0,256.0,43.5,260.0,43.0,264.0,43.5,268.0,43.5,272.0,44.5,275.5,45.5,279.5,47.0,283.5,47.5,287.5,49.0,291.5,50.0,296.0,52.0,300.0,52.0,304.0,52.5,308.0,53.0,312.0,54.5,316.0,56.5,319.5,60.0,323.5,64.0,328.0,71.5,331.5" stroke="black" stroke-width="1" fill="none" />
<polyline points="200.5,275.0,203.5,271.0,210.5,267.0" stroke="black" stroke-width="1" fill="none" />
<polyline points="183.5,191.0,177.0,192.5,181.0,192.5,184.5,192.0,188.0,189.5,191.5,185.5" stroke="black" stroke-width="1" fill="none" />
<polyline points="191.0,139.5,195.0,139.5" stroke="black" stroke-width="1" fill="none" />
<polyline points="200.5,129.5,197.0,135.5,195.0,135.5,199.0,131.5,203.5,130.5" stroke="black" stroke-width="1" fill="none" />
<polyline points="207.5,119.5,211.5,119.5,215.5,119.5,219.0,116.0,225.0,116.0" stroke="black" stroke-width="1" fill="none" />
<polyline points="229.5,116.0,233.5,117.5" stroke="black" stroke-width="1" fill="none" />
<polyline points="233.0,117.5,236.5,121.0,239.0,124.5,241.0,129.0,243.5,132.5,250.0,136.0,250.0,139.0,253.5,142.0,253.5,150.5" stroke="black" stroke-width="1" fill="none" />
<polyline points="261.0,159.5,258.5,164.0,256.0,168.0,257.5,170.5,256.0,174.5,255.5,178.5,255.0,182.5,254.0,186.0,255.5,186.5" stroke="black" stroke-width="1" fill="none" />
<polyline points="243.0,179.0,238.5,180.5" stroke="black" stroke-width="1" fill="none" />
<polyline points="235.5,180.0,242.5,177.0" stroke="black" stroke-width="1" fill="none" />
<polyline points="243.5,180.5,246.5,178.0,249.5,176.0,251.0,172.0,252.0,168.5" stroke="black" stroke-width="1" fill="none" />
<polyline points="261.5,159.5,264.5,163.5,266.0,167.5,268.5,171.5,270.5,175.5,272.0,179.5" stroke="black" stroke-width="1" fill="none" />
<polyline points="268.5,156.5,273.0,151.5" stroke="black" stroke-width="1" fill="none" />
<polyline points="277.0,154.0,277.0,149.5,277.0,146.0,277.5,142.0" stroke="black" stroke-width="1" fill="none" />
<polyline points="280.0,141.0,280.0,145.0,279.5,149.0,278.5,153.0,278.0,156.5,277.5,160.5,277.0,164.5,276.5,168.5,276.0,172.0,275.5,176.0,275.5,179.5,274.5,184.0,273.0,188.0,272.0,192.0,271.0,196.0,269.5,200.5,268.0,204.5,266.0,208.5,262.5,212.5,258.5,216.5,254.5,220.5,249.0,224.5,241.5,228.5,231.5,232.5,228.0,236.0,228.0,240.0,228.5,244.0,229.0,248.0,229.5,252.0,230.5,256.0,231.0,260.0,232.0,264.0,235.0,268.0,240.5,271.5,245.5,276.0,249.0,280.0,251.5,283.5,253.0,288.0,254.5,292.0,256.0,296.0" stroke="black" stroke-width="1" fill="none" />
<polyline points="257.0,350.5,253.0,361.0" stroke="black" stroke-width="1" fill="none" />
<polyline points="250.0,370.0,251.0,374.0,251.5,378.5,252.5,382.5,253.5,386.0,255.0,390.0,255.0,394.5,256.0,399.0,256.5,403.0,257.5,407.0,257.5,411.5,258.5,415.5,259.5,419.5,260.0,423.0,260.5,426.0,261.0,430.0,262.0,433.5,263.0,437.0,263.0,441.0,264.0,445.0,265.0,449.0,265.5,453.0,266.5,457.0,268.0,461.5,269.0,466.0,270.0,470.5,271.0,474.5,272.0,479.0,273.5,483.5,274.5,487.5,275.0,492.0,276.5,496.0,277.5,499.5,279.0,503.0,279.0,507.0,279.5,511.0" stroke="black" stroke-width="1" fill="none" />
<polyline points="418.5,511.5,418.5,507.5,419.0,503.5,419.0,499.0,419.5,495.0,419.5,490.5,419.0,487.0,419.0,483.0,419.0,479.0,419.0,475.0,419.0,471.0,418.5,466.5,418.5,462.5,418.5,458.0,418.0,453.5,418.0,449.5,418.5,446.0,419.0,442.0,419.5,438.5,419.5,434.5,419.5,430.5,419.5,426.5,419.0,423.0,419.0,419.0,419.0,415.0,419.0,411.0,419.0,407.0,418.5,403.0,418.5,399.0,418.5,395.0,418.5,390.5,418.5,386.5,418.5,382.5,418.5,378.5,419.0,374.5,424.5,370.5" stroke="black" stroke-width="1" fill="none" />
<polyline points="443.0,366.5,448.0,362.5,452.0,358.5,455.0,354.5,457.5,350.5,459.5,346.5,461.0,342.5,461.5,338.0,462.0,334.0,462.0,330.0,462.0,325.5,462.5,321.5,463.0,317.0,464.5,313.0,465.5,309.0,467.0,305.0,468.5,301.0,470.0,297.0,471.0,293.0,471.0,289.5,470.5,286.0,470.0,282.0,468.0,280.5,464.0,285.5,460.0,289.5,456.0,288.5,449.5,283.0,451.0,280.5,450.5,276.5,449.0,272.5,447.0,268.5,446.5,264.5,445.0,260.5,446.0,259.0,444.0,258.0,441.0,254.0,437.5,253.5,433.5,254.0,429.0,254.5,425.0,254.0,420.5,254.0,416.5,254.0,412.0,256.0" stroke="black" stroke-width="1" fill="none" />
<polyline points="417.5,254.0,413.0,258.5,412.0,262.5" stroke="black" stroke-width="1" fill="none" />
<polyline points="423.0,250.5,426.5,249.0,427.5,245.0,428.5,244.0,427.5,245.5" stroke="black" stroke-width="1" fill="none" />
<polyline points="429.0,249.5,433.0,247.0,432.0,246.5,436.0,244.5" stroke="black" stroke-width="1" fill="none" />
<polyline points="433.5,241.0,429.5,239.5" stroke="black" stroke-width="1" fill="none" />
<polyline points="429.5,236.5,433.5,238.0" stroke="black" stroke-width="1" fill="none" />
<polyline points="423.5,228.5,430.5,232.5,426.0,237.0,426.0,238.5,429.0,240.0,427.0,244.0,426.0,244.0,424.0,248.0,423.0,252.0,429.5,254.5,431.5,254.5,435.5,254.0,440.0,257.5,444.5,258.5" stroke="black" stroke-width="1" fill="none" />
<polyline points="448.0,256.0,444.0,247.5,440.0,241.5,436.0,236.5,431.5,233.5,427.5,230.5,423.5,228.5,419.5,227.5,415.5,226.0,411.5,227.5,407.5,229.0,403.5,233.0,400.0,238.0,396.0,242.5,392.5,244.0,388.5,246.0,384.5,247.0,381.0,249.0" stroke="black" stroke-width="1" fill="none" />
<polyline points="381.0,251.0,379.5,255.0,378.0,255.0,376.5,259.0,374.0,263.0,374.0,261.5,378.0,254.5" stroke="black" stroke-width="1" fill="none" />
<polyline points="373.0,256.5,377.0,249.0,381.5,245.5,385.5,243.5,389.0,242.5" stroke="black" stroke-width="1" fill="none" />
<polyline points="408.0,245.0,409.0,249.0,411.0,253.0,411.0,257.0,409.5,261.5,408.5,263.5,412.0,262.5" stroke="black" stroke-width="1" fill="none" />
<polyline points="434.5,254.5,439.5,258.5,439.5,262.0,441.5,265.5,439.5,265.0" stroke="black" stroke-width="1" fill="none" />
<polyline points="465.5,280.0,463.0,284.0,460.0,288.0" stroke="black" stroke-width="1" fill="none" />
<polyline points="404.5,290.0,410.0,294.0,414.5,297.5,421.0,301.0,422.5,305.0,418.5,308.5,419.0,312.5,417.5,316.5,417.0,320.5,418.0,324.5,418.0,328.5,417.5,332.0" stroke="black" stroke-width="1" fill="none" />
<polyline points="385.0,314.0,381.0,305.5,377.0,301.0,372.5,295.0,368.5,292.0,364.5,287.0" stroke="black" stroke-width="1" fill="none" />
<polyline points="362.5,290.0,366.5,294.0,371.0,296.0" stroke="black" stroke-width="1" fill="none" />
<polyline points="370.0,301.5,369.5,300.5,370.5,298.0,364.5,294.0,361.0,289.5" stroke="black" stroke-width="1" fill="none" />
<polyline points="361.0,284.5,365.0,284.5" stroke="black" stroke-width="1" fill="none" />
<polyline points="361.0,280.5,360.0,285.0,360.0,289.5,360.5,294.0,361.5,298.5,362.5,303.0,363.0,307.0,364.0,311.0,364.5,315.0,366.0,318.5,366.5,322.5,367.0,326.5,368.0,330.5,368.5,334.5,369.0,338.5,369.5,342.0,371.0,345.5,373.5,349.0,375.5,353.0,378.0,357.0,382.0,361.5,389.5,365.5" stroke="black" stroke-width="1" fill="none" />
<polyline points="388.5,322.0,385.0,322.0,381.5,324.0,386.5,320.0,384.5,315.5,383.0,311.5,381.0,307.0,379.0,303.0,375.5,299.5,374.0,296.5,371.0,293.0,367.0,289.0,363.0,285.5,363.0,282.0,367.0,280.5,367.5,277.0,369.5,273.5,371.0,269.5,371.0,266.0,371.0,261.5,372.0,257.5,374.0,253.5,377.0,249.5,382.0,245.5,391.5,243.5,399.0,239.5,402.5,236.0,406.0,232.0,413.0,228.0" stroke="black" stroke-width="1" fill="none" />
<polyline points="302.0,103.5,301.5,99.5,301.0,95.5,303.0,89.0,302.5,85.0,301.0,80.5,299.5,76.5,298.5,72.0,295.5,70.5,291.5,76.0" stroke="black" stroke-width="1" fill="none" />
<polyline points="298.0,70.0,294.5,74.0,293.5,77.5,292.5,81.5,293.0,85.5,293.0,89.0,294.0,93.5,294.5,97.5,295.5,101.5,296.0,105.5,295.5,110.0,296.5,114.0,296.5,118.0,296.5,122.5,296.0,127.0,296.5,131.5,295.5,135.5,295.5,139.5,295.0,143.5,294.5,147.5,294.0,151.5,294.5,155.5,295.0,159.5,295.5,163.5,296.5,167.5,297.5,171.5,299.5,175.0,302.0,179.0,305.5,183.0,310.5,187.0,319.0,191.0,330.0,194.5,331.0,198.5,330.5,203.0,330.5,207.0,330.5,211.0,330.0,215.5,329.5,219.5,329.5,223.5,329.0,227.5,328.5,231.5,327.5,235.5,327.5,239.5,326.5,243.5,326.0,247.5,325.0,251.5,325.0,255.5,324.5,259.5,324.0,264.0,323.5,267.5,323.0,271.5,323.0,275.5,323.0,279.5,323.0,283.5,322.5,287.5,322.5,291.5,322.5,296.0,323.0,300.0,323.5,304.5,323.5,308.5,323.0,312.0,322.5,316.5,323.5,320.0,323.5,324.0,323.5,327.5,323.5,332.0,323.0,335.5,323.0,339.5,323.0,343.5,323.0,347.5,323.0,351.5,323.0,355.5,323.5,360.0,323.5,364.0,323.5,368.0,324.0,372.0,324.0,376.0,324.0,380.0,324.0,384.5,324.0,388.5,324.5,392.5,324.5,396.5,325.0,400.5,325.0,404.5,325.0,408.5,325.5,412.5,325.0,416.5,324.5,420.0,325.0,424.0,325.5,428.5,325.5,432.5,326.0,436.0,326.5,439.5,327.5,443.5,328.0,447.0,328.0,451.0,329.0,455.0,329.5,459.0,330.0,463.0,331.0,467.5,331.0,471.5,332.5,475.5,333.0,479.0,333.5,483.0,334.5,487.0,335.0,491.0,335.5,495.0,336.5,499.0,337.0,503.0,338.0,506.5,338.5,510.5" stroke="black" stroke-width="1" fill="none" />
<polyline points="272.5,178.5,271.5,175.0,271.5,171.0,272.0,166.5,270.0,163.0,269.0,158.5,270.5,154.5,273.0,151.0,274.5,147.0,274.5,143.0,274.5,139.5,275.5,135.5,271.5,131.5" stroke="black" stroke-width="1" fill="none" />
<polyline points="268.0,130.0,260.0,133.5,257.0,137.5,255.5,141.0" stroke="black" stroke-width="1" fill="none" />
<polyline points="244.5,130.0,240.5,121.5,236.5,115.5,232.5,112.0,228.0,112.0,224.0,115.5,220.5,115.5,217.0,114.5,212.5,112.0,209.0,110.5,205.0,109.5,201.0,108.5,196.5,108.5,192.5,108.5,188.5,110.0,184.5,114.5,180.5,122.0,176.5,133.0" stroke="black" stroke-width="1" fill="none" />
<polyline points="191.0,110.0,187.0,114.0,185.0,117.5,182.0,121.5,180.5,125.5,178.5,129.0,178.0,133.0,177.0,136.5,176.0,140.5,175.0,144.5,173.5,148.5,172.5,152.5,171.5,156.5,171.0,160.0,171.0,164.0,172.0,168.5,173.0,172.5,174.0,176.5,174.0,181.0,174.0,185.5,174.0,189.5,175.0,193.0,176.0,197.0,177.0,200.5,178.5,204.5,181.5,208.0,183.5,211.5,185.5,215.5,187.5,219.5,190.0,223.0,192.5,227.0,195.5,231.0,200.5,235.5" stroke="black" stroke-width="1" fill="none" />
<polyline points="108.0,194.5,101.0,190.5" stroke="black" stroke-width="1" fill="none" />
<polyline points="96.5,190.5,89.0,194.5,83.5,199.0,80.0,203.0,77.5,207.5" stroke="black" stroke-width="1" fill="none" />
<polyline points="207.5,118.0,212.0,117.5,212.5,116.0,217.0,114.0" stroke="black" stroke-width="1" fill="none" />
<polyline points="214.5,115.5,210.5,117.5,206.5,120.0,202.5,122.5,198.5,125.5,194.0,129.5,193.5,132.0,196.0,128.5,200.5,124.0,207.0,119.5,213.5,115.5,215.0,114.0,206.5,110.0" stroke="black" stroke-width="1" fill="none" />
<polyline points="228.0,110.5,226.0,113.0,226.5,115.0,228.5,116.0,229.5,114.0,233.5,116.5,236.0,122.5,240.0,125.5,243.5,132.0,248.5,135.5,249.5,140.0,253.0,142.5,256.0,140.5,259.5,135.5,263.0,133.5,266.5,131.5,270.5,132.0,274.5,135.5,278.5,140.5,278.5,142.0" stroke="black" stroke-width="1" fill="none" />
<polyline points="256.5,155.5,257.0,154.5,256.0,153.5,254.0,152.0,253.0,148.0,251.0,144.5,249.0,140.5,247.0,136.5,246.0,132.5,243.5,128.5,242.0,124.5,239.0,120.5,236.5,116.0,232.5,112.0" stroke="black" stroke-width="1" fill="none" />
<polyline points="305.0,98.5,306.5,102.5,307.0,106.0,307.5,110.5" stroke="black" stroke-width="1" fill="none" />
<polyline points="300.5,78.5,299.0,74.5,298.5,70.5" stroke="black" stroke-width="1" fill="none" />
</svg>